<svg width="9" height="14" viewBox="0 0 9 14" fill="none" xmlns="http://www.w3.org/2000/svg">
<path d="M4.23633 5.24414C4.41992 5.55664 4.51172 5.82812 4.51172 6.05859C4.51172 6.25781 4.45898 6.43555 4.35352 6.5918C4.24805 6.74805 3.98047 6.99219 3.55078 7.32422C3.11719 7.66016 2.81836 7.99609 2.6543 8.33203C2.48633 8.66797 2.40234 9.00977 2.40234 9.35742C2.40234 9.74805 2.5 10.0605 2.69531 10.2949C2.89063 10.5293 3.15234 10.6465 3.48047 10.6465C3.78516 10.6465 4.04102 10.5449 4.24805 10.3418C4.45508 10.1426 4.55859 9.89453 4.55859 9.59766C4.55859 9.44922 4.52539 9.30469 4.45898 9.16406C4.38867 9.02734 4.27734 8.95898 4.125 8.95898C3.96875 8.96289 3.89063 8.91992 3.89063 8.83008C3.89063 8.72852 4.03125 8.58984 4.3125 8.41406C4.59375 8.23828 4.78516 8.15039 4.88672 8.15039C5.01563 8.15039 5.13867 8.25 5.25586 8.44922C5.36914 8.65234 5.42578 8.87109 5.42578 9.10547C5.42578 9.67188 5.15039 10.1855 4.59961 10.6465C4.04883 11.1074 3.43164 11.3379 2.74805 11.3379C2.20508 11.3379 1.75977 11.1621 1.41211 10.8105C1.06445 10.459 0.890625 10.0078 0.890625 9.45703C0.890625 8.90625 1.06836 8.40234 1.42383 7.94531C1.7793 7.48828 2.36133 7.00781 3.16992 6.50391C3.5293 6.27734 3.76367 6.10156 3.87305 5.97656C3.97852 5.85547 4.03125 5.70703 4.03125 5.53125C4.03125 5.50781 4.02344 5.43945 4.00781 5.32617L4.23633 5.24414ZM3.46875 4.25977C3.58594 3.7793 3.72656 3.42578 3.89063 3.19922C4.05469 2.97656 4.30664 2.86523 4.64648 2.86523C4.94727 2.86523 5.2793 2.99805 5.64258 3.26367C5.45898 3.48242 5.24609 3.93945 5.00391 4.63477C4.84375 4.46289 4.69531 4.33984 4.55859 4.26562C4.41797 4.19141 4.23828 4.1543 4.01953 4.1543C3.92188 4.1543 3.73828 4.18945 3.46875 4.25977Z" fill="#E9C46A"/>
<path d="M7.23633 5.24414C7.41992 5.55664 7.51172 5.82812 7.51172 6.05859C7.51172 6.25781 7.45898 6.43555 7.35352 6.5918C7.24805 6.74805 6.98047 6.99219 6.55078 7.32422C6.11719 7.66016 5.81836 7.99609 5.6543 8.33203C5.48633 8.66797 5.40234 9.00977 5.40234 9.35742C5.40234 9.74805 5.5 10.0605 5.69531 10.2949C5.89062 10.5293 6.15234 10.6465 6.48047 10.6465C6.78516 10.6465 7.04102 10.5449 7.24805 10.3418C7.45508 10.1426 7.55859 9.89453 7.55859 9.59766C7.55859 9.44922 7.52539 9.30469 7.45898 9.16406C7.38867 9.02734 7.27734 8.95898 7.125 8.95898C6.96875 8.96289 6.89062 8.91992 6.89062 8.83008C6.89062 8.72852 7.03125 8.58984 7.3125 8.41406C7.59375 8.23828 7.78516 8.15039 7.88672 8.15039C8.01562 8.15039 8.13867 8.25 8.25586 8.44922C8.36914 8.65234 8.42578 8.87109 8.42578 9.10547C8.42578 9.67188 8.15039 10.1855 7.59961 10.6465C7.04883 11.1074 6.43164 11.3379 5.74805 11.3379C5.20508 11.3379 4.75977 11.1621 4.41211 10.8105C4.06445 10.459 3.89063 10.0078 3.89063 9.45703C3.89063 8.90625 4.06836 8.40234 4.42383 7.94531C4.7793 7.48828 5.36133 7.00781 6.16992 6.50391C6.5293 6.27734 6.76367 6.10156 6.87305 5.97656C6.97852 5.85547 7.03125 5.70703 7.03125 5.53125C7.03125 5.50781 7.02344 5.43945 7.00781 5.32617L7.23633 5.24414ZM6.46875 4.25977C6.58594 3.7793 6.72656 3.42578 6.89063 3.19922C7.05469 2.97656 7.30664 2.86523 7.64648 2.86523C7.94727 2.86523 8.2793 2.99805 8.64258 3.26367C8.45898 3.48242 8.24609 3.93945 8.00391 4.63477C7.84375 4.46289 7.69531 4.33984 7.55859 4.26562C7.41797 4.19141 7.23828 4.1543 7.01953 4.1543C6.92188 4.1543 6.73828 4.18945 6.46875 4.25977Z" fill="#E9C46A"/>
</svg>
