<svg xmlns="http://www.w3.org/2000/svg" width="44" height="15" fill="none" viewBox="0 0 44 15"><path fill="#2A9D8F" d="M7.02273 6C6.92898 5.71307 6.8054 5.45597 6.65199 5.22869C6.50142 4.99858 6.32102 4.80256 6.1108 4.64062C5.90341 4.47869 5.66761 4.35511 5.40341 4.26989C5.1392 4.18466 4.84943 4.14205 4.53409 4.14205C4.01705 4.14205 3.54688 4.27557 3.12358 4.54261C2.70028 4.80966 2.36364 5.20312 2.11364 5.72301C1.86364 6.2429 1.73864 6.88068 1.73864 7.63636C1.73864 8.39205 1.86506 9.02983 2.1179 9.54972C2.37074 10.0696 2.71307 10.4631 3.14489 10.7301C3.5767 10.9972 4.0625 11.1307 4.60227 11.1307C5.10227 11.1307 5.54261 11.0241 5.9233 10.8111C6.30682 10.5952 6.60511 10.2912 6.81818 9.89915C7.03409 9.50426 7.14205 9.03977 7.14205 8.50568L7.46591 8.57386H4.84091V7.63636H8.16477V8.57386C8.16477 9.29261 8.01136 9.91761 7.70455 10.4489C7.40057 10.9801 6.98011 11.392 6.44318 11.6847C5.90909 11.9744 5.29545 12.1193 4.60227 12.1193C3.82955 12.1193 3.15057 11.9375 2.56534 11.5739C1.98295 11.2102 1.52841 10.6932 1.2017 10.0227C0.877841 9.35227 0.715909 8.55682 0.715909 7.63636C0.715909 6.94602 0.808239 6.32528 0.992898 5.77415C1.1804 5.22017 1.4446 4.74858 1.78551 4.35938C2.12642 3.97017 2.52983 3.67188 2.99574 3.46449C3.46165 3.2571 3.97443 3.15341 4.53409 3.15341C4.99432 3.15341 5.4233 3.22301 5.82102 3.36222C6.22159 3.49858 6.57812 3.69318 6.89062 3.94602C7.20597 4.19602 7.46875 4.49574 7.67898 4.84517C7.8892 5.19176 8.03409 5.5767 8.11364 6H7.02273ZM13.9634 9.32386V5.45455H14.9691V12H13.9634V10.892H13.8952C13.7418 11.2244 13.5032 11.5071 13.1793 11.7401C12.8555 11.9702 12.4464 12.0852 11.9521 12.0852C11.543 12.0852 11.1793 11.9957 10.8612 11.8168C10.543 11.6349 10.293 11.3622 10.1112 10.9986C9.92933 10.6321 9.83842 10.1705 9.83842 9.61364V5.45455H10.8441V9.54545C10.8441 10.0227 10.9776 10.4034 11.2447 10.6875C11.5146 10.9716 11.8583 11.1136 12.2759 11.1136C12.5259 11.1136 12.7802 11.0497 13.0387 10.9219C13.3001 10.794 13.5188 10.598 13.695 10.3338C13.8739 10.0696 13.9634 9.73295 13.9634 9.32386ZM19.5554 12.1364C18.9247 12.1364 18.3807 11.9972 17.9233 11.7188C17.4688 11.4375 17.1179 11.0455 16.8707 10.5426C16.6264 10.0369 16.5043 9.44886 16.5043 8.77841C16.5043 8.10795 16.6264 7.51705 16.8707 7.00568C17.1179 6.49148 17.4616 6.09091 17.902 5.80398C18.3452 5.5142 18.8622 5.36932 19.4531 5.36932C19.794 5.36932 20.1307 5.42614 20.4631 5.53977C20.7955 5.65341 21.098 5.83807 21.3707 6.09375C21.6435 6.34659 21.8608 6.68182 22.0227 7.09943C22.1847 7.51705 22.2656 8.03125 22.2656 8.64205V9.06818H17.2202V8.19886H21.2429C21.2429 7.82955 21.169 7.5 21.0213 7.21023C20.8764 6.92045 20.669 6.69176 20.3991 6.52415C20.1321 6.35653 19.8168 6.27273 19.4531 6.27273C19.0526 6.27273 18.706 6.37216 18.4134 6.57102C18.1236 6.76705 17.9006 7.02273 17.7443 7.33807C17.5881 7.65341 17.5099 7.99148 17.5099 8.35227V8.93182C17.5099 9.42614 17.5952 9.84517 17.7656 10.1889C17.9389 10.5298 18.179 10.7898 18.4858 10.9688C18.7926 11.1449 19.1491 11.233 19.5554 11.233C19.8196 11.233 20.0582 11.196 20.2713 11.1222C20.4872 11.0455 20.6733 10.9318 20.8295 10.7812C20.9858 10.6278 21.1065 10.4375 21.1918 10.2102L22.1634 10.483C22.0611 10.8125 21.8892 11.1023 21.6477 11.3523C21.4063 11.5994 21.108 11.7926 20.7528 11.9318C20.3977 12.0682 19.9986 12.1364 19.5554 12.1364ZM38.1364 4.72727V12H37.2557V4.72727H38.1364ZM42.7885 5.45455V6.30682H39.3965V5.45455H42.7885ZM40.3851 3.88636H41.3908V10.125C41.3908 10.4091 41.432 10.6222 41.5144 10.7642C41.5996 10.9034 41.7076 10.9972 41.8382 11.0455C41.9718 11.0909 42.1124 11.1136 42.2601 11.1136C42.3709 11.1136 42.4618 11.108 42.5328 11.0966C42.6039 11.0824 42.6607 11.071 42.7033 11.0625L42.9078 11.9659C42.8397 11.9915 42.7445 12.017 42.6223 12.0426C42.5002 12.071 42.3453 12.0852 42.1578 12.0852C41.8738 12.0852 41.5953 12.0241 41.3226 11.902C41.0527 11.7798 40.8283 11.5938 40.6493 11.3438C40.4732 11.0938 40.3851 10.7784 40.3851 10.3977V3.88636Z"/><path fill="#E9C46A" d="M27.2363 6.24414C27.4199 6.55664 27.5117 6.82812 27.5117 7.05859C27.5117 7.25781 27.459 7.43555 27.3535 7.5918C27.248 7.74805 26.9805 7.99219 26.5508 8.32422C26.1172 8.66016 25.8184 8.99609 25.6543 9.33203C25.4863 9.66797 25.4023 10.0098 25.4023 10.3574C25.4023 10.748 25.5 11.0605 25.6953 11.2949C25.8906 11.5293 26.1523 11.6465 26.4805 11.6465C26.7852 11.6465 27.041 11.5449 27.248 11.3418C27.4551 11.1426 27.5586 10.8945 27.5586 10.5977C27.5586 10.4492 27.5254 10.3047 27.459 10.1641C27.3887 10.0273 27.2773 9.95898 27.125 9.95898C26.9688 9.96289 26.8906 9.91992 26.8906 9.83008C26.8906 9.72852 27.0312 9.58984 27.3125 9.41406C27.5938 9.23828 27.7852 9.15039 27.8867 9.15039C28.0156 9.15039 28.1387 9.25 28.2559 9.44922C28.3691 9.65234 28.4258 9.87109 28.4258 10.1055C28.4258 10.6719 28.1504 11.1855 27.5996 11.6465C27.0488 12.1074 26.4316 12.3379 25.748 12.3379C25.2051 12.3379 24.7598 12.1621 24.4121 11.8105C24.0645 11.459 23.8906 11.0078 23.8906 10.457C23.8906 9.90625 24.0684 9.40234 24.4238 8.94531C24.7793 8.48828 25.3613 8.00781 26.1699 7.50391C26.5293 7.27734 26.7637 7.10156 26.873 6.97656C26.9785 6.85547 27.0312 6.70703 27.0312 6.53125C27.0312 6.50781 27.0234 6.43945 27.0078 6.32617L27.2363 6.24414ZM26.4688 5.25977C26.5859 4.7793 26.7266 4.42578 26.8906 4.19922C27.0547 3.97656 27.3066 3.86523 27.6465 3.86523C27.9473 3.86523 28.2793 3.99805 28.6426 4.26367C28.459 4.48242 28.2461 4.93945 28.0039 5.63477C27.8438 5.46289 27.6953 5.33984 27.5586 5.26562C27.418 5.19141 27.2383 5.1543 27.0195 5.1543C26.9219 5.1543 26.7383 5.18945 26.4688 5.25977Z"/><path fill="#E9C46A" d="M30.2363 6.24414C30.4199 6.55664 30.5117 6.82812 30.5117 7.05859C30.5117 7.25781 30.459 7.43555 30.3535 7.5918C30.248 7.74805 29.9805 7.99219 29.5508 8.32422C29.1172 8.66016 28.8184 8.99609 28.6543 9.33203C28.4863 9.66797 28.4023 10.0098 28.4023 10.3574C28.4023 10.748 28.5 11.0605 28.6953 11.2949C28.8906 11.5293 29.1523 11.6465 29.4805 11.6465C29.7852 11.6465 30.041 11.5449 30.248 11.3418C30.4551 11.1426 30.5586 10.8945 30.5586 10.5977C30.5586 10.4492 30.5254 10.3047 30.459 10.1641C30.3887 10.0273 30.2773 9.95898 30.125 9.95898C29.9688 9.96289 29.8906 9.91992 29.8906 9.83008C29.8906 9.72852 30.0312 9.58984 30.3125 9.41406C30.5938 9.23828 30.7852 9.15039 30.8867 9.15039C31.0156 9.15039 31.1387 9.25 31.2559 9.44922C31.3691 9.65234 31.4258 9.87109 31.4258 10.1055C31.4258 10.6719 31.1504 11.1855 30.5996 11.6465C30.0488 12.1074 29.4316 12.3379 28.748 12.3379C28.2051 12.3379 27.7598 12.1621 27.4121 11.8105C27.0645 11.459 26.8906 11.0078 26.8906 10.457C26.8906 9.90625 27.0684 9.40234 27.4238 8.94531C27.7793 8.48828 28.3613 8.00781 29.1699 7.50391C29.5293 7.27734 29.7637 7.10156 29.873 6.97656C29.9785 6.85547 30.0312 6.70703 30.0312 6.53125C30.0312 6.50781 30.0234 6.43945 30.0078 6.32617L30.2363 6.24414ZM29.4688 5.25977C29.5859 4.7793 29.7266 4.42578 29.8906 4.19922C30.0547 3.97656 30.3066 3.86523 30.6465 3.86523C30.9473 3.86523 31.2793 3.99805 31.6426 4.26367C31.459 4.48242 31.2461 4.93945 31.0039 5.63477C30.8438 5.46289 30.6953 5.33984 30.5586 5.26562C30.418 5.19141 30.2383 5.1543 30.0195 5.1543C29.9219 5.1543 29.7383 5.18945 29.4688 5.25977Z"/></svg>